PathFileType	4	(X/Y/Z)	RBDS018static.trc
DataRate	CameraRate	NumFrames	NumMarkers	Units	OrigDataRate	OrigDataStartFrame	OrigNumFrames
150.000000	150.000000	4	48	mm	150.000000	131	150
Frame#	Time	L.Ankle			L.Ankle.Medial			L.ASIS			L.GTR			L.Heel.Bottom			L.Heel.Lateral			L.Heel.Top			L.HF			L.Iliac.Crest			L.Knee			L.Knee.Medial			L.MT1			L.MT2			L.MT5			L.PSIS			L.Shank.Bottom.Lateral			L.Shank.Bottom.Medial			L.Shank.Top.Lateral			L.Shank.Top.Medial			L.Thigh.Bottom.Lateral			L.Thigh.Bottom.Medial			L.Thigh.Top.Lateral			L.Thigh.Top.Medial			L.TT			R.Ankle			R.Ankle.Medial			R.ASIS			R.GTR			R.Heel.Bottom			R.Heel.Lateral			R.Heel.Top			R.HF			R.Iliac.Crest			R.Knee			R.Knee.Medial			R.MT1			R.MT2			R.MT5			R.PSIS			R.Shank.Bottom.Lateral			R.Shank.Bottom.Medial			R.Shank.Top.Lateral			R.Shank.Top.Medial			R.Thigh.Bottom.Lateral			R.Thigh.Bottom.Medial			R.Thigh.Top.Lateral			R.Thigh.Top.Medial			R.TT			
		X1	Y1	Z1	X2	Y2	Z2	X3	Y3	Z3	X4	Y4	Z4	X5	Y5	Z5	X6	Y6	Z6	X7	Y7	Z7	X8	Y8	Z8	X9	Y9	Z9	X10	Y10	Z10	X11	Y11	Z11	X12	Y12	Z12	X13	Y13	Z13	X14	Y14	Z14	X15	Y15	Z15	X16	Y16	Z16	X17	Y17	Z17	X18	Y18	Z18	X19	Y19	Z19	X20	Y20	Z20	X21	Y21	Z21	X22	Y22	Z22	X23	Y23	Z23	X24	Y24	Z24	X25	Y25	Z25	X26	Y26	Z26	X27	Y27	Z27	X28	Y28	Z28	X29	Y29	Z29	X30	Y30	Z30	X31	Y31	Z31	X32	Y32	Z32	X33	Y33	Z33	X34	Y34	Z34	X35	Y35	Z35	X36	Y36	Z36	X37	Y37	Z37	X38	Y38	Z38	X39	Y39	Z39	X40	Y40	Z40	X41	Y41	Z41	X42	Y42	Z42	X43	Y43	Z43	X44	Y44	Z44	X45	Y45	Z45	X46	Y46	Z46	X47	Y47	Z47	X48	Y48	Z48	

132	0.8733333333333334	710.9325561523438	105.4957580566406	1044.257080078125	737.871337890625	116.4834594726563	1127.911376953125	857.8480224609375	1074.2216796875	1127.703491210938	794.0309448242188	971.0659790039063	1048.36279296875	641.0635986328125	42.08195114135742	1087.282958984375	671.8636474609375	53.9869499206543	1040.946411132813	650.7741088867188	91.88249206542969	1085.148803710938	732.7891235351563	497.9164733886719	1030.93017578125	781.3439331054688	1141.619384765625	1080.897338867188	745.8364868164063	565.0126342773438	1042.160278320313	746.1969604492188	531.4037475585938	1170.107177734375	863.58935546875	56.38030242919922	1128.304077148438	874.1240844726563	69.45510101318359	1074.660522460938	839.4785766601563	54.02766418457031	1014.860595703125	679.1920166015625	1080.4814453125	1182.2392578125	689.5667724609375	202.4470062255859	1034.362670898438	659.8595581054688	201.4868316650391	1076.151611328125	679.62548828125	282.2334289550781	1024.3701171875	650.1224365234375	285.5362548828125	1068.63330078125	747.131591796875	675.5505981445313	1032.236572265625	690.634033203125	681.2985229492188	1078.70703125	753.482177734375	784.9678955078125	1027.953979492188	700.3627319335938	790.0459594726563	1073.375732421875	790.3568725585938	463.8795776367188	1086.030517578125	710.2268676757813	107.0422973632813	1414.5	733.2100830078125	123.4185562133789	1330.636962890625	852.8350219726563	1075.747314453125	1361.463500976563	790.307373046875	970.563720703125	1427.536010742188	639.61669921875	42.92677307128906	1374.453735351563	662.6952514648438	59.89949798583984	1410.48876953125	650.955810546875	92.84401702880859	1373.428100585938	742.4495849609375	490.7599792480469	1437.6669921875	777.88232421875	1142.855590820313	1387.26611328125	743.75244140625	555.1245727539063	1431.270629882813	742.35107421875	533.28125	1299.429443359375	861.566162109375	59.86175918579102	1326.352172851563	875.0459594726563	69.61666870117188	1377.265991210938	838.171630859375	55.88566207885742	1437.672607421875	677.8292846679688	1084.466918945313	1291.32177734375	705.9623413085938	211.7022247314453	1436.066650390625	662.5939331054688	214.7245635986328	1400.84423828125	699.4854736328125	291.9988708496094	1449.011474609375	658.37939453125	294.0104675292969	1413.873779296875	749.4492797851563	668.7626953125	1442.779418945313	690.2312622070313	674.51416015625	1400.144287109375	753.9598999023438	779.2803955078125	1447.618896484375	698.531005859375	784.0067749023438	1407.653442382813	795.413818359375	468.2445983886719	1387.029541015625	
133	0.88	710.9315185546875	105.4889450073242	1044.254638671875	737.873291015625	116.4848480224609	1127.916137695313	857.9221801757813	1074.203369140625	1127.709594726563	794.0989990234375	971.0538330078125	1048.383178710938	641.0625	42.07759857177734	1087.28271484375	671.8695678710938	53.9814567565918	1040.935791015625	650.771728515625	91.88240814208984	1085.149536132813	732.7996826171875	497.9150390625	1030.92626953125	781.4365234375	1141.616455078125	1080.909301757813	745.8710327148438	565.0159301757813	1042.1591796875	746.218994140625	531.3977661132813	1170.114013671875	863.585205078125	56.39171600341797	1128.30517578125	874.116455078125	69.44940185546875	1074.66650390625	839.4868774414063	54.02767562866211	1014.853576660156	679.2586669921875	1080.4912109375	1182.231567382813	689.56103515625	202.4563751220703	1034.3623046875	659.8612670898438	201.4989318847656	1076.1494140625	679.6282348632813	282.2370300292969	1024.37060546875	650.1172485351563	285.5380249023438	1068.6298828125	747.1785888671875	675.550537109375	1032.236450195313	690.6572875976563	681.30712890625	1078.70703125	753.5230712890625	784.9658813476563	1027.961791992188	700.4119873046875	790.04833984375	1073.380493164063	790.37890625	463.8832092285156	1086.03466796875	710.2281494140625	107.0434112548828	1414.499389648438	733.2020263671875	123.4109115600586	1330.631958007813	852.8856201171875	1075.744384765625	1361.49658203125	790.3287963867188	970.5616455078125	1427.540405273438	639.6185913085938	42.92339706420898	1374.452392578125	662.6948852539063	59.90046310424805	1410.486206054688	650.9453735351563	92.84854888916016	1373.429809570313	742.4449462890625	490.7533874511719	1437.660888671875	777.916748046875	1142.852661132813	1387.285888671875	743.751220703125	555.1275024414063	1431.274780273438	742.37109375	533.2750244140625	1299.427490234375	861.5685424804688	59.86006164550781	1326.345947265625	875.0357666015625	69.62384033203125	1377.279541015625	838.1720581054688	55.88867950439453	1437.666870117188	677.8858642578125	1084.47412109375	1291.316162109375	705.9566650390625	211.6971740722656	1436.071411132813	662.5905151367188	214.7326507568359	1400.844482421875	699.4823608398438	291.9962768554688	1449.016479492188	658.3838500976563	294.0133666992188	1413.865966796875	749.4591064453125	668.763916015625	1442.785766601563	690.250244140625	674.5175170898438	1400.1513671875	753.970947265625	779.2825927734375	1447.629272460938	698.5450439453125	784.0061645507813	1407.652709960938	795.4175415039063	468.2348022460938	1387.054077148438	
134	0.8866666666666667	710.9318237304688	105.4971694946289	1044.240600585938	737.8687133789063	116.4889221191406	1127.90966796875	858.0034790039063	1074.1865234375	1127.713256835938	794.1548461914063	971.038818359375	1048.399780273438	641.0609130859375	42.08322906494141	1087.272583007813	671.8670654296875	53.98108291625977	1040.948120117188	650.7744140625	91.88134765625	1085.146240234375	732.8207397460938	497.9176635742188	1030.933959960938	781.5274658203125	1141.604125976563	1080.920043945313	745.9032592773438	565.0252075195313	1042.1640625	746.214111328125	531.4103393554688	1170.13525390625	863.59033203125	56.39168548583984	1128.304565429688	874.1201782226563	69.45553588867188	1074.665893554688	839.4800415039063	54.02726364135742	1014.852722167969	679.3206176757813	1080.497314453125	1182.246826171875	689.5664672851563	202.4588165283203	1034.366333007813	659.8623046875	201.5042877197266	1076.138793945313	679.6348266601563	282.2362060546875	1024.373779296875	650.1188354492188	285.5501403808594	1068.629516601563	747.2001953125	675.5419311523438	1032.2470703125	690.6910400390625	681.2982788085938	1078.720336914063	753.5656127929688	784.9637451171875	1027.973388671875	700.45166015625	790.046630859375	1073.392211914063	790.381591796875	463.8773193359375	1086.052734375	710.2221069335938	107.0557022094727	1414.495483398438	733.2012329101563	123.4190979003906	1330.637084960938	852.9512329101563	1075.742919921875	1361.510498046875	790.3541259765625	970.565185546875	1427.553588867188	639.6151123046875	42.93096160888672	1374.438720703125	662.6949462890625	59.90631103515625	1410.4892578125	650.9454956054688	92.8455810546875	1373.42529296875	742.4528198242188	490.764892578125	1437.667114257813	777.9633178710938	1142.850219726563	1387.283325195313	743.7530517578125	555.12890625	1431.286865234375	742.3970336914063	533.266357421875	1299.4462890625	861.5634155273438	59.85733795166016	1326.348754882813	875.0408935546875	69.6246337890625	1377.277465820313	838.1640014648438	55.92821884155273	1437.702758789063	677.9329833984375	1084.484741210938	1291.307861328125	705.9528198242188	211.7000732421875	1436.063720703125	662.5934448242188	214.7317504882813	1400.83056640625	699.4821166992188	291.9992065429688	1449.009765625	658.3881225585938	294.0085144042969	1413.855834960938	749.4610595703125	668.7740478515625	1442.797729492188	690.2528686523438	674.5265502929688	1400.152465820313	753.9882202148438	779.2808227539063	1447.647827148438	698.5640869140625	784.0199584960938	1407.655029296875	795.4317016601563	468.2339782714844	1387.0537109375	
135	0.8933333333333334	710.9351196289063	105.4871292114258	1044.253540039063	737.8663330078125	116.4931640625	1127.921020507813	858.03564453125	1074.197875976563	1127.466674804688	794.2119750976563	971.0305786132813	1048.410766601563	641.0633544921875	42.0841178894043	1087.2763671875	671.8670043945313	53.98217010498047	1040.944702148438	650.7823486328125	91.87747192382813	1085.149291992188	732.8406982421875	497.9356384277344	1030.939819335938	781.6007080078125	1141.586791992188	1080.930908203125	745.9249877929688	565.015869140625	1042.17529296875	746.2640380859375	531.4152221679688	1170.129272460938	863.5880737304688	56.38701248168945	1128.297119140625	874.1260375976563	69.45201873779297	1074.666625976563	839.4794311523438	54.03468704223633	1014.852600097656	679.3915405273438	1080.50341796875	1182.2451171875	689.5678100585938	202.4741973876953	1034.35693359375	659.8590087890625	201.5200958251953	1076.143676757813	679.6495361328125	282.2465209960938	1024.370361328125	650.1195678710938	285.5584716796875	1068.626831054688	747.2640380859375	675.5429077148438	1032.246215820313	690.729736328125	681.2941284179688	1078.752685546875	753.6038818359375	784.95751953125	1027.995361328125	700.4904174804688	790.043212890625	1073.40478515625	790.3954467773438	463.8870849609375	1086.065063476563	710.2251586914063	107.0423889160156	1414.48779296875	733.2070922851563	123.4139862060547	1330.63232421875	853.0117797851563	1075.743408203125	1361.533813476563	790.3895874023438	970.5609741210938	1427.552612304688	639.6170043945313	42.92850494384766	1374.443725585938	662.696533203125	59.90703964233398	1410.480590820313	650.9474487304688	92.84697723388672	1373.418823242188	742.44189453125	490.7571411132813	1437.667114257813	778.0193481445313	1142.844970703125	1387.284423828125	743.7571411132813	555.1358032226563	1431.286743164063	742.4125366210938	533.2706909179688	1299.451538085938	861.5628662109375	59.86377716064453	1326.35791015625	875.037109375	69.62685394287109	1377.27978515625	838.166748046875	55.92116546630859	1437.704711914063	677.9922485351563	1084.491455078125	1291.30810546875	705.955810546875	211.7015380859375	1436.0712890625	662.5965576171875	214.7346649169922	1400.82666015625	699.4846801757813	292.0086975097656	1449.016235351563	658.3914794921875	294.0231323242188	1413.845581054688	749.4739990234375	668.7081909179688	1442.778930664063	690.2689819335938	674.5369873046875	1400.155883789063	754.0017700195313	779.2927856445313	1447.659301757813	698.5816650390625	784.0282592773438	1407.659790039063	795.4358520507813	468.2291259765625	1387.073608398438	
